<?xml version="1.0" encoding="UTF-8"?>
<svg id="Layer_2" data-name="Layer 2" xmlns="http://www.w3.org/2000/svg" viewBox="0 0 345.72 346.09">
  <defs>
    <style>
      .cls-1 {
        fill: #6B7280;
        stroke-width: 0px;
      }
    </style>
  </defs>
  <path class="cls-1" d="M52.57,49.55C106.24-3.1,185.64-14.9,252.18,19.48c15.02,7.52,28.99,18.27,41.86,30.07,36.51,35.45,53.66,82.75,51.51,130.03-4.28-27.95-18.24-54.8-39.7-76.29-55.82-55.87-145.94-55.87-201.76,0-37.57,37.62-37.57,99.93,0,138.59,13.96,13.96,31.11,23.64,49.36,26.86-36.51,3.22-74.03-8.61-101.95-36.54C1.04,182.8,1.04,101.11,50.42,51.71l1.06-1.06,1.06-1.06h0l.03-.03Z"/>
  <path class="cls-1" d="M294.03,295.6c-32.18,32.23-76.19,50.5-121.26,50.5s-89.06-18.27-122.33-50.5C18.27,263.37,0,219.31,0,173.12v-8.61c4.28,27.95,18.24,55.87,39.7,77.35,26.83,26.86,62.23,41.91,100.87,41.91,33.27,0,65.47-11.83,90.15-32.23,3.22-3.22,7.52-6.44,10.74-9.68l1.06-1.06c37.57-38.69,37.57-98.86,0-136.46-12.87-12.9-27.9-21.49-45.07-25.79h8.59c34.33,0,65.47,13.96,89.06,38.69,47.2,48.34,48.29,125.72,2.15,175.15,0,0,0,1.06-1.06,1.06l-2.15,2.15h0Z"/>
</svg>